<?xml version="1.0" encoding="UTF-8" standalone="no"?>
<!DOCTYPE svg PUBLIC "-//W3C//DTD SVG 1.1//EN" "http://www.w3.org/Graphics/SVG/1.1/DTD/svg11.dtd">
<svg width="100%" height="100%" viewBox="0 0 512 512" version="1.1" xmlns="http://www.w3.org/2000/svg" xmlns:xlink="http://www.w3.org/1999/xlink" xml:space="preserve" xmlns:serif="http://www.serif.com/" style="fill-rule:evenodd;clip-rule:evenodd;stroke-linejoin:round;stroke-miterlimit:2;">
    <g transform="matrix(0.976562,0,0,0.976562,3,3)">
        <path d="M256,10.001C256,7.349 254.946,4.805 253.071,2.929C251.195,1.054 248.651,-0 245.999,-0L10.001,0C7.349,-0 4.805,1.054 2.929,2.929C1.054,4.805 -0,7.349 -0,10.001L0,245.999C-0,248.651 1.054,251.195 2.929,253.071C4.805,254.946 7.349,256 10.001,256L245.999,256C248.651,256 251.195,254.946 253.071,253.071C254.946,251.195 256,248.651 256,245.999L256,10.001Z"/>
    </g>
    <g transform="matrix(0.976562,0,0,0.976562,3,256)">
        <path d="M256,10.001C256,7.349 254.946,4.805 253.071,2.929C251.195,1.054 248.651,-0 245.999,-0L10.001,0C7.349,-0 4.805,1.054 2.929,2.929C1.054,4.805 -0,7.349 -0,10.001L0,245.999C-0,248.651 1.054,251.195 2.929,253.071C4.805,254.946 7.349,256 10.001,256L245.999,256C248.651,256 251.195,254.946 253.071,253.071C254.946,251.195 256,248.651 256,245.999L256,10.001Z" style="fill-opacity:0.5;"/>
    </g>
    <g transform="matrix(0.976562,0,0,0.976562,256,256)">
        <path d="M256,10.001C256,7.349 254.946,4.805 253.071,2.929C251.195,1.054 248.651,-0 245.999,-0L10.001,0C7.349,-0 4.805,1.054 2.929,2.929C1.054,4.805 -0,7.349 -0,10.001L0,245.999C-0,248.651 1.054,251.195 2.929,253.071C4.805,254.946 7.349,256 10.001,256L245.999,256C248.651,256 251.195,254.946 253.071,253.071C254.946,251.195 256,248.651 256,245.999L256,10.001Z" style="fill-opacity:0.25;"/>
    </g>
</svg>
