<?xml version="1.0" encoding="UTF-8" standalone="no"?>
<!DOCTYPE svg PUBLIC "-//W3C//DTD SVG 1.1//EN" "http://www.w3.org/Graphics/SVG/1.1/DTD/svg11.dtd">
<svg width="100%" height="100%" viewBox="0 0 448 512" version="1.1" xmlns="http://www.w3.org/2000/svg" xmlns:xlink="http://www.w3.org/1999/xlink" xml:space="preserve" xmlns:serif="http://www.serif.com/" style="fill-rule:evenodd;clip-rule:evenodd;stroke-linejoin:round;stroke-miterlimit:2;">
    <path d="M135.2,17.7L128,32L32,32C14.3,32 0,46.3 0,64C0,81.7 14.3,96 32,96L416,96C433.7,96 448,81.7 448,64C448,46.3 433.7,32 416,32L320,32L312.8,17.7C307.4,6.8 296.3,0 284.2,0L163.8,0C151.7,0 140.6,6.8 135.2,17.7ZM416,128L32,128L53.2,467C54.8,492.3 75.8,512 101.1,512L346.9,512C372.2,512 393.2,492.3 394.8,467L416,128Z" style="fill:rgb(238,179,18);fill-rule:nonzero;"/>
</svg>
